<mxfile host="Electron" agent="Mozilla/5.0 (Windows NT 10.0; Win64; x64) AppleWebKit/537.36 (KHTML, like Gecko) draw.io/24.7.17 Chrome/128.0.6613.36 Electron/32.0.1 Safari/537.36" version="24.7.17">
  <diagram name="Страница — 1" id="O1EhlCfBvCtDMvDEMz21">
    <mxGraphModel dx="1877" dy="717" grid="1" gridSize="10" guides="1" tooltips="1" connect="1" arrows="1" fold="1" page="1" pageScale="1" pageWidth="827" pageHeight="1169" math="0" shadow="0">
      <root>
        <mxCell id="0" />
        <mxCell id="1" parent="0" />
        <mxCell id="rwGJ0qn1aoxPnb-aKq6v-5" style="edgeStyle=orthogonalEdgeStyle;rounded=0;orthogonalLoop=1;jettySize=auto;html=1;entryX=0.5;entryY=0;entryDx=0;entryDy=0;" edge="1" parent="1" source="rwGJ0qn1aoxPnb-aKq6v-1" target="rwGJ0qn1aoxPnb-aKq6v-2">
          <mxGeometry relative="1" as="geometry" />
        </mxCell>
        <mxCell id="rwGJ0qn1aoxPnb-aKq6v-1" value="Начало" style="ellipse;whiteSpace=wrap;html=1;" vertex="1" parent="1">
          <mxGeometry x="160" y="10" width="100" height="60" as="geometry" />
        </mxCell>
        <mxCell id="rwGJ0qn1aoxPnb-aKq6v-22" style="edgeStyle=orthogonalEdgeStyle;rounded=0;orthogonalLoop=1;jettySize=auto;html=1;entryX=0.5;entryY=0;entryDx=0;entryDy=0;" edge="1" parent="1" source="rwGJ0qn1aoxPnb-aKq6v-2" target="rwGJ0qn1aoxPnb-aKq6v-13">
          <mxGeometry relative="1" as="geometry" />
        </mxCell>
        <mxCell id="rwGJ0qn1aoxPnb-aKq6v-2" value="int main()" style="shape=process;whiteSpace=wrap;html=1;backgroundOutline=1;" vertex="1" parent="1">
          <mxGeometry x="160" y="140" width="100" height="20" as="geometry" />
        </mxCell>
        <mxCell id="rwGJ0qn1aoxPnb-aKq6v-4" value="" style="endArrow=none;dashed=1;html=1;rounded=0;" edge="1" parent="1">
          <mxGeometry width="50" height="50" relative="1" as="geometry">
            <mxPoint x="210" y="100" as="sourcePoint" />
            <mxPoint x="320" y="100" as="targetPoint" />
          </mxGeometry>
        </mxCell>
        <mxCell id="rwGJ0qn1aoxPnb-aKq6v-6" value="" style="endArrow=none;html=1;rounded=0;" edge="1" parent="1">
          <mxGeometry width="50" height="50" relative="1" as="geometry">
            <mxPoint x="330" y="450" as="sourcePoint" />
            <mxPoint x="330" y="30" as="targetPoint" />
          </mxGeometry>
        </mxCell>
        <mxCell id="rwGJ0qn1aoxPnb-aKq6v-7" value="" style="endArrow=none;html=1;rounded=0;" edge="1" parent="1">
          <mxGeometry width="50" height="50" relative="1" as="geometry">
            <mxPoint x="330" y="30" as="sourcePoint" />
            <mxPoint x="490" y="30" as="targetPoint" />
          </mxGeometry>
        </mxCell>
        <mxCell id="rwGJ0qn1aoxPnb-aKq6v-8" value="&lt;div&gt;#include &amp;lt;iostream&amp;gt;&lt;/div&gt;&lt;div&gt;#include &amp;lt;clocale&amp;gt;&lt;/div&gt;&lt;div&gt;#include &amp;lt;cmath&amp;gt;&lt;/div&gt;&lt;div&gt;using namespace std;&lt;/div&gt;" style="text;html=1;align=center;verticalAlign=middle;whiteSpace=wrap;rounded=0;" vertex="1" parent="1">
          <mxGeometry x="330" y="30" width="130" height="70" as="geometry" />
        </mxCell>
        <mxCell id="rwGJ0qn1aoxPnb-aKq6v-48" style="edgeStyle=orthogonalEdgeStyle;rounded=0;orthogonalLoop=1;jettySize=auto;html=1;entryX=0.5;entryY=0;entryDx=0;entryDy=0;" edge="1" parent="1" source="rwGJ0qn1aoxPnb-aKq6v-9" target="rwGJ0qn1aoxPnb-aKq6v-43">
          <mxGeometry relative="1" as="geometry" />
        </mxCell>
        <mxCell id="rwGJ0qn1aoxPnb-aKq6v-9" value="double rec(float x, int n)" style="shape=process;whiteSpace=wrap;html=1;backgroundOutline=1;" vertex="1" parent="1">
          <mxGeometry x="343" y="118" width="170" height="20" as="geometry" />
        </mxCell>
        <mxCell id="rwGJ0qn1aoxPnb-aKq6v-10" value="{" style="text;html=1;align=center;verticalAlign=middle;whiteSpace=wrap;rounded=0;" vertex="1" parent="1">
          <mxGeometry x="180" y="160" width="20" height="30" as="geometry" />
        </mxCell>
        <mxCell id="rwGJ0qn1aoxPnb-aKq6v-11" value="{" style="text;html=1;align=center;verticalAlign=middle;whiteSpace=wrap;rounded=0;" vertex="1" parent="1">
          <mxGeometry x="398" y="133" width="20" height="25" as="geometry" />
        </mxCell>
        <mxCell id="rwGJ0qn1aoxPnb-aKq6v-12" value="}" style="text;html=1;align=center;verticalAlign=middle;whiteSpace=wrap;rounded=0;" vertex="1" parent="1">
          <mxGeometry x="250" y="680" width="20" height="20" as="geometry" />
        </mxCell>
        <mxCell id="rwGJ0qn1aoxPnb-aKq6v-23" style="edgeStyle=orthogonalEdgeStyle;rounded=0;orthogonalLoop=1;jettySize=auto;html=1;" edge="1" parent="1" source="rwGJ0qn1aoxPnb-aKq6v-13" target="rwGJ0qn1aoxPnb-aKq6v-14">
          <mxGeometry relative="1" as="geometry" />
        </mxCell>
        <mxCell id="rwGJ0qn1aoxPnb-aKq6v-13" value="float x;" style="rounded=0;whiteSpace=wrap;html=1;" vertex="1" parent="1">
          <mxGeometry x="180" y="190" width="60" height="20" as="geometry" />
        </mxCell>
        <mxCell id="rwGJ0qn1aoxPnb-aKq6v-24" style="edgeStyle=orthogonalEdgeStyle;rounded=0;orthogonalLoop=1;jettySize=auto;html=1;entryX=0.5;entryY=0;entryDx=0;entryDy=0;" edge="1" parent="1" source="rwGJ0qn1aoxPnb-aKq6v-14" target="rwGJ0qn1aoxPnb-aKq6v-15">
          <mxGeometry relative="1" as="geometry" />
        </mxCell>
        <mxCell id="rwGJ0qn1aoxPnb-aKq6v-14" value="int n;" style="rounded=0;whiteSpace=wrap;html=1;" vertex="1" parent="1">
          <mxGeometry x="190" y="230" width="40" height="20" as="geometry" />
        </mxCell>
        <mxCell id="rwGJ0qn1aoxPnb-aKq6v-25" style="edgeStyle=orthogonalEdgeStyle;rounded=0;orthogonalLoop=1;jettySize=auto;html=1;entryX=0.5;entryY=0;entryDx=0;entryDy=0;" edge="1" parent="1" source="rwGJ0qn1aoxPnb-aKq6v-15" target="rwGJ0qn1aoxPnb-aKq6v-16">
          <mxGeometry relative="1" as="geometry" />
        </mxCell>
        <mxCell id="rwGJ0qn1aoxPnb-aKq6v-15" value="setlocale(0, &quot;rus&quot;);" style="rounded=0;whiteSpace=wrap;html=1;" vertex="1" parent="1">
          <mxGeometry x="155" y="270" width="110" height="20" as="geometry" />
        </mxCell>
        <mxCell id="rwGJ0qn1aoxPnb-aKq6v-26" style="edgeStyle=orthogonalEdgeStyle;rounded=0;orthogonalLoop=1;jettySize=auto;html=1;entryX=0.5;entryY=0;entryDx=0;entryDy=0;" edge="1" parent="1" source="rwGJ0qn1aoxPnb-aKq6v-16" target="rwGJ0qn1aoxPnb-aKq6v-19">
          <mxGeometry relative="1" as="geometry" />
        </mxCell>
        <mxCell id="rwGJ0qn1aoxPnb-aKq6v-16" value="cout &amp;lt;&amp;lt; &quot;Введите значение x: &quot;;" style="shape=parallelogram;perimeter=parallelogramPerimeter;whiteSpace=wrap;html=1;fixedSize=1;" vertex="1" parent="1">
          <mxGeometry x="105" y="320" width="210" height="20" as="geometry" />
        </mxCell>
        <mxCell id="rwGJ0qn1aoxPnb-aKq6v-28" style="edgeStyle=orthogonalEdgeStyle;rounded=0;orthogonalLoop=1;jettySize=auto;html=1;entryX=0.5;entryY=0;entryDx=0;entryDy=0;" edge="1" parent="1" source="rwGJ0qn1aoxPnb-aKq6v-17" target="rwGJ0qn1aoxPnb-aKq6v-18">
          <mxGeometry relative="1" as="geometry" />
        </mxCell>
        <mxCell id="rwGJ0qn1aoxPnb-aKq6v-17" value="cout &amp;lt;&amp;lt; &quot;Введите значение n: &quot;;" style="shape=parallelogram;perimeter=parallelogramPerimeter;whiteSpace=wrap;html=1;fixedSize=1;" vertex="1" parent="1">
          <mxGeometry x="106" y="420" width="210" height="20" as="geometry" />
        </mxCell>
        <mxCell id="rwGJ0qn1aoxPnb-aKq6v-29" style="edgeStyle=orthogonalEdgeStyle;rounded=0;orthogonalLoop=1;jettySize=auto;html=1;entryX=0.5;entryY=0;entryDx=0;entryDy=0;" edge="1" parent="1" source="rwGJ0qn1aoxPnb-aKq6v-18" target="rwGJ0qn1aoxPnb-aKq6v-21">
          <mxGeometry relative="1" as="geometry" />
        </mxCell>
        <mxCell id="rwGJ0qn1aoxPnb-aKq6v-18" value="cin &amp;gt;&amp;gt; n;" style="shape=parallelogram;perimeter=parallelogramPerimeter;whiteSpace=wrap;html=1;fixedSize=1;" vertex="1" parent="1">
          <mxGeometry x="165" y="470" width="90" height="20" as="geometry" />
        </mxCell>
        <mxCell id="rwGJ0qn1aoxPnb-aKq6v-27" style="edgeStyle=orthogonalEdgeStyle;rounded=0;orthogonalLoop=1;jettySize=auto;html=1;entryX=0.5;entryY=0;entryDx=0;entryDy=0;" edge="1" parent="1" source="rwGJ0qn1aoxPnb-aKq6v-19" target="rwGJ0qn1aoxPnb-aKq6v-17">
          <mxGeometry relative="1" as="geometry" />
        </mxCell>
        <mxCell id="rwGJ0qn1aoxPnb-aKq6v-19" value="cin &amp;gt;&amp;gt; x;" style="shape=parallelogram;perimeter=parallelogramPerimeter;whiteSpace=wrap;html=1;fixedSize=1;" vertex="1" parent="1">
          <mxGeometry x="167" y="370" width="86" height="20" as="geometry" />
        </mxCell>
        <mxCell id="rwGJ0qn1aoxPnb-aKq6v-38" style="edgeStyle=orthogonalEdgeStyle;rounded=0;orthogonalLoop=1;jettySize=auto;html=1;entryX=0.5;entryY=0;entryDx=0;entryDy=0;" edge="1" parent="1" source="rwGJ0qn1aoxPnb-aKq6v-21" target="rwGJ0qn1aoxPnb-aKq6v-30">
          <mxGeometry relative="1" as="geometry">
            <Array as="points">
              <mxPoint x="80" y="540" />
            </Array>
          </mxGeometry>
        </mxCell>
        <mxCell id="rwGJ0qn1aoxPnb-aKq6v-39" style="edgeStyle=orthogonalEdgeStyle;rounded=0;orthogonalLoop=1;jettySize=auto;html=1;entryX=0.5;entryY=0;entryDx=0;entryDy=0;" edge="1" parent="1" source="rwGJ0qn1aoxPnb-aKq6v-21" target="rwGJ0qn1aoxPnb-aKq6v-35">
          <mxGeometry relative="1" as="geometry">
            <Array as="points">
              <mxPoint x="335" y="540" />
            </Array>
          </mxGeometry>
        </mxCell>
        <mxCell id="rwGJ0qn1aoxPnb-aKq6v-21" value="if (n &amp;lt; 0)" style="rhombus;whiteSpace=wrap;html=1;" vertex="1" parent="1">
          <mxGeometry x="165" y="520" width="90" height="40" as="geometry" />
        </mxCell>
        <mxCell id="rwGJ0qn1aoxPnb-aKq6v-37" style="edgeStyle=orthogonalEdgeStyle;rounded=0;orthogonalLoop=1;jettySize=auto;html=1;" edge="1" parent="1" source="rwGJ0qn1aoxPnb-aKq6v-30">
          <mxGeometry relative="1" as="geometry">
            <mxPoint x="210" y="640" as="targetPoint" />
            <Array as="points">
              <mxPoint x="80" y="640" />
            </Array>
          </mxGeometry>
        </mxCell>
        <mxCell id="rwGJ0qn1aoxPnb-aKq6v-30" value="cout &amp;lt;&amp;lt; &quot;Ошибка, значение n должно быть положительным&quot;;" style="shape=parallelogram;perimeter=parallelogramPerimeter;whiteSpace=wrap;html=1;fixedSize=1;" vertex="1" parent="1">
          <mxGeometry x="-105" y="576" width="370" height="20" as="geometry" />
        </mxCell>
        <mxCell id="rwGJ0qn1aoxPnb-aKq6v-31" value="1" style="text;html=1;align=center;verticalAlign=middle;whiteSpace=wrap;rounded=0;" vertex="1" parent="1">
          <mxGeometry x="135" y="510" width="20" height="20" as="geometry" />
        </mxCell>
        <mxCell id="rwGJ0qn1aoxPnb-aKq6v-32" value="0" style="text;html=1;align=center;verticalAlign=middle;whiteSpace=wrap;rounded=0;" vertex="1" parent="1">
          <mxGeometry x="265" y="510" width="30" height="20" as="geometry" />
        </mxCell>
        <mxCell id="rwGJ0qn1aoxPnb-aKq6v-40" style="edgeStyle=orthogonalEdgeStyle;rounded=0;orthogonalLoop=1;jettySize=auto;html=1;" edge="1" parent="1" source="rwGJ0qn1aoxPnb-aKq6v-35">
          <mxGeometry relative="1" as="geometry">
            <mxPoint x="210" y="640" as="targetPoint" />
            <Array as="points">
              <mxPoint x="335" y="640" />
            </Array>
          </mxGeometry>
        </mxCell>
        <mxCell id="rwGJ0qn1aoxPnb-aKq6v-35" value="cout &amp;lt;&amp;lt; &quot;S = &quot; &amp;lt;&amp;lt; rec(x, n);" style="shape=parallelogram;perimeter=parallelogramPerimeter;whiteSpace=wrap;html=1;fixedSize=1;" vertex="1" parent="1">
          <mxGeometry x="240" y="601" width="190" height="20" as="geometry" />
        </mxCell>
        <mxCell id="rwGJ0qn1aoxPnb-aKq6v-41" value="return 0;" style="ellipse;whiteSpace=wrap;html=1;" vertex="1" parent="1">
          <mxGeometry x="170" y="670" width="80" height="40" as="geometry" />
        </mxCell>
        <mxCell id="rwGJ0qn1aoxPnb-aKq6v-42" value="" style="endArrow=classic;html=1;rounded=0;entryX=0.5;entryY=0;entryDx=0;entryDy=0;" edge="1" parent="1" target="rwGJ0qn1aoxPnb-aKq6v-41">
          <mxGeometry width="50" height="50" relative="1" as="geometry">
            <mxPoint x="210" y="640" as="sourcePoint" />
            <mxPoint x="300" y="650" as="targetPoint" />
          </mxGeometry>
        </mxCell>
        <mxCell id="rwGJ0qn1aoxPnb-aKq6v-49" style="edgeStyle=orthogonalEdgeStyle;rounded=0;orthogonalLoop=1;jettySize=auto;html=1;entryX=0.5;entryY=0;entryDx=0;entryDy=0;" edge="1" parent="1" source="rwGJ0qn1aoxPnb-aKq6v-43" target="rwGJ0qn1aoxPnb-aKq6v-44">
          <mxGeometry relative="1" as="geometry">
            <Array as="points">
              <mxPoint x="368" y="181" />
            </Array>
          </mxGeometry>
        </mxCell>
        <mxCell id="rwGJ0qn1aoxPnb-aKq6v-50" style="edgeStyle=orthogonalEdgeStyle;rounded=0;orthogonalLoop=1;jettySize=auto;html=1;" edge="1" parent="1" source="rwGJ0qn1aoxPnb-aKq6v-43" target="rwGJ0qn1aoxPnb-aKq6v-45">
          <mxGeometry relative="1" as="geometry" />
        </mxCell>
        <mxCell id="rwGJ0qn1aoxPnb-aKq6v-43" value="if (n == 0)" style="rhombus;whiteSpace=wrap;html=1;" vertex="1" parent="1">
          <mxGeometry x="383" y="163" width="90" height="35" as="geometry" />
        </mxCell>
        <mxCell id="rwGJ0qn1aoxPnb-aKq6v-59" style="edgeStyle=orthogonalEdgeStyle;rounded=0;orthogonalLoop=1;jettySize=auto;html=1;" edge="1" parent="1" source="rwGJ0qn1aoxPnb-aKq6v-44">
          <mxGeometry relative="1" as="geometry">
            <mxPoint x="423" y="358" as="targetPoint" />
            <Array as="points">
              <mxPoint x="368" y="358" />
              <mxPoint x="393" y="358" />
            </Array>
          </mxGeometry>
        </mxCell>
        <mxCell id="rwGJ0qn1aoxPnb-aKq6v-44" value="return x;" style="rounded=0;whiteSpace=wrap;html=1;" vertex="1" parent="1">
          <mxGeometry x="338" y="208" width="60" height="20" as="geometry" />
        </mxCell>
        <mxCell id="rwGJ0qn1aoxPnb-aKq6v-51" style="edgeStyle=orthogonalEdgeStyle;rounded=0;orthogonalLoop=1;jettySize=auto;html=1;entryX=0.5;entryY=0;entryDx=0;entryDy=0;" edge="1" parent="1" source="rwGJ0qn1aoxPnb-aKq6v-45" target="rwGJ0qn1aoxPnb-aKq6v-46">
          <mxGeometry relative="1" as="geometry">
            <Array as="points">
              <mxPoint x="468" y="228" />
            </Array>
          </mxGeometry>
        </mxCell>
        <mxCell id="rwGJ0qn1aoxPnb-aKq6v-61" style="edgeStyle=orthogonalEdgeStyle;rounded=0;orthogonalLoop=1;jettySize=auto;html=1;entryX=0.5;entryY=0;entryDx=0;entryDy=0;" edge="1" parent="1" source="rwGJ0qn1aoxPnb-aKq6v-45" target="rwGJ0qn1aoxPnb-aKq6v-47">
          <mxGeometry relative="1" as="geometry">
            <Array as="points">
              <mxPoint x="657" y="228" />
            </Array>
          </mxGeometry>
        </mxCell>
        <mxCell id="rwGJ0qn1aoxPnb-aKq6v-45" value="if (n == 1)" style="rhombus;whiteSpace=wrap;html=1;" vertex="1" parent="1">
          <mxGeometry x="493" y="208" width="80" height="40" as="geometry" />
        </mxCell>
        <mxCell id="rwGJ0qn1aoxPnb-aKq6v-57" style="edgeStyle=orthogonalEdgeStyle;rounded=0;orthogonalLoop=1;jettySize=auto;html=1;" edge="1" parent="1" source="rwGJ0qn1aoxPnb-aKq6v-46">
          <mxGeometry relative="1" as="geometry">
            <mxPoint x="533" y="348" as="targetPoint" />
            <Array as="points">
              <mxPoint x="468" y="348" />
            </Array>
          </mxGeometry>
        </mxCell>
        <mxCell id="rwGJ0qn1aoxPnb-aKq6v-46" value="return rec(x, n - 1) - pow(x, 3) / 3;" style="rounded=0;whiteSpace=wrap;html=1;" vertex="1" parent="1">
          <mxGeometry x="373" y="268" width="190" height="20" as="geometry" />
        </mxCell>
        <mxCell id="rwGJ0qn1aoxPnb-aKq6v-58" style="edgeStyle=orthogonalEdgeStyle;rounded=0;orthogonalLoop=1;jettySize=auto;html=1;" edge="1" parent="1" source="rwGJ0qn1aoxPnb-aKq6v-47">
          <mxGeometry relative="1" as="geometry">
            <mxPoint x="533" y="348" as="targetPoint" />
          </mxGeometry>
        </mxCell>
        <mxCell id="rwGJ0qn1aoxPnb-aKq6v-47" value="return pow(-1, n) * (pow(x, 2 * n + 1) / (2 * n + 1)) + rec(x, n - 1);" style="rounded=0;whiteSpace=wrap;html=1;" vertex="1" parent="1">
          <mxGeometry x="483" y="308" width="347" height="20" as="geometry" />
        </mxCell>
        <mxCell id="rwGJ0qn1aoxPnb-aKq6v-53" value="1" style="text;html=1;align=center;verticalAlign=middle;whiteSpace=wrap;rounded=0;" vertex="1" parent="1">
          <mxGeometry x="363" y="158" width="20" height="20" as="geometry" />
        </mxCell>
        <mxCell id="rwGJ0qn1aoxPnb-aKq6v-54" value="1" style="text;html=1;align=center;verticalAlign=middle;whiteSpace=wrap;rounded=0;" vertex="1" parent="1">
          <mxGeometry x="473" y="208" width="20" height="20" as="geometry" />
        </mxCell>
        <mxCell id="rwGJ0qn1aoxPnb-aKq6v-55" value="0" style="text;html=1;align=center;verticalAlign=middle;whiteSpace=wrap;rounded=0;" vertex="1" parent="1">
          <mxGeometry x="468" y="158" width="30" height="20" as="geometry" />
        </mxCell>
        <mxCell id="rwGJ0qn1aoxPnb-aKq6v-56" value="0" style="text;html=1;align=center;verticalAlign=middle;whiteSpace=wrap;rounded=0;" vertex="1" parent="1">
          <mxGeometry x="573" y="208" width="30" height="20" as="geometry" />
        </mxCell>
        <mxCell id="rwGJ0qn1aoxPnb-aKq6v-60" value="" style="endArrow=classic;html=1;rounded=0;" edge="1" parent="1">
          <mxGeometry width="50" height="50" relative="1" as="geometry">
            <mxPoint x="533" y="348" as="sourcePoint" />
            <mxPoint x="423" y="358" as="targetPoint" />
            <Array as="points">
              <mxPoint x="533" y="358" />
            </Array>
          </mxGeometry>
        </mxCell>
        <mxCell id="rwGJ0qn1aoxPnb-aKq6v-63" value="}" style="text;html=1;align=center;verticalAlign=middle;whiteSpace=wrap;rounded=0;" vertex="1" parent="1">
          <mxGeometry x="468" y="410" width="20" height="20" as="geometry" />
        </mxCell>
        <mxCell id="rwGJ0qn1aoxPnb-aKq6v-64" value="return 0;" style="ellipse;whiteSpace=wrap;html=1;" vertex="1" parent="1">
          <mxGeometry x="383" y="400" width="80" height="40" as="geometry" />
        </mxCell>
        <mxCell id="rwGJ0qn1aoxPnb-aKq6v-65" value="" style="endArrow=none;dashed=1;html=1;dashPattern=1 3;strokeWidth=2;rounded=0;" edge="1" parent="1">
          <mxGeometry width="50" height="50" relative="1" as="geometry">
            <mxPoint x="440" y="390" as="sourcePoint" />
            <mxPoint x="440" y="370" as="targetPoint" />
          </mxGeometry>
        </mxCell>
        <mxCell id="rwGJ0qn1aoxPnb-aKq6v-66" value="}" style="text;html=1;align=center;verticalAlign=middle;whiteSpace=wrap;rounded=0;" vertex="1" parent="1">
          <mxGeometry x="448" y="370" width="20" height="20" as="geometry" />
        </mxCell>
        <mxCell id="rwGJ0qn1aoxPnb-aKq6v-67" value="" style="endArrow=classic;html=1;rounded=0;entryX=0.5;entryY=-0.068;entryDx=0;entryDy=0;entryPerimeter=0;" edge="1" parent="1" target="rwGJ0qn1aoxPnb-aKq6v-64">
          <mxGeometry width="50" height="50" relative="1" as="geometry">
            <mxPoint x="423" y="358" as="sourcePoint" />
            <mxPoint x="423" y="388" as="targetPoint" />
          </mxGeometry>
        </mxCell>
        <mxCell id="rwGJ0qn1aoxPnb-aKq6v-68" value="" style="endArrow=none;html=1;rounded=0;" edge="1" parent="1">
          <mxGeometry width="50" height="50" relative="1" as="geometry">
            <mxPoint x="330" y="450" as="sourcePoint" />
            <mxPoint x="520" y="450" as="targetPoint" />
          </mxGeometry>
        </mxCell>
      </root>
    </mxGraphModel>
  </diagram>
</mxfile>
